#tb 0: 1/25
0,          0,          0,        1,   599040, 0x8087662a
0,          1,          1,        1,   599040, 0x5278d8db
0,          2,          2,        1,   599040, 0x73c74090
0,          3,          3,        1,   599040, 0xde0d8317
0,          4,          4,        1,   599040, 0xd9d4c26c
0,          5,          5,        1,   599040, 0x603a10bd
0,          6,          6,        1,   599040, 0xa91e9b91
0,          7,          7,        1,   599040, 0x73567e6a
0,          8,          8,        1,   599040, 0x67912cc6
0,          9,          9,        1,   599040, 0x98d3fb2c
0,         10,         10,        1,   599040, 0x50c6d7fc
0,         11,         11,        1,   599040, 0x8ae23020
0,         12,         12,        1,   599040, 0x9eaa976f
0,         13,         13,        1,   599040, 0x3cadf6c0
0,         14,         14,        1,   599040, 0x7d498902
0,         15,         15,        1,   599040, 0x525decac
0,         16,         16,        1,   599040, 0x081485cc
0,         17,         17,        1,   599040, 0x3fd6ba7a
0,         18,         18,        1,   599040, 0x8bbbaa4c
0,         19,         19,        1,   599040, 0x9e60a407
0,         20,         20,        1,   599040, 0x394becb9
0,         21,         21,        1,   599040, 0x068dffb5
0,         22,         22,        1,   599040, 0x531fd221
0,         23,         23,        1,   599040, 0x3aa6922e
0,         24,         24,        1,   599040, 0x089d2456
0,         25,         25,        1,   599040, 0x7c432995
0,         26,         26,        1,   599040, 0x3693613d
0,         27,         27,        1,   599040, 0x8b6d902f
0,         28,         28,        1,   599040, 0x7c9a947b
0,         29,         29,        1,   599040, 0x51d9e4c6
0,         30,         30,        1,   599040, 0xdc7f62f3
0,         31,         31,        1,   599040, 0x9da6cba0
0,         32,         32,        1,   599040, 0x1bef8581
0,         33,         33,        1,   599040, 0xc19c4211
0,         34,         34,        1,   599040, 0x7824188e
0,         35,         35,        1,   599040, 0xd0511050
0,         36,         36,        1,   599040, 0x39d93e78
0,         37,         37,        1,   599040, 0x1e0dc88e
0,         38,         38,        1,   599040, 0x2cd7522e
0,         39,         39,        1,   599040, 0x538928a5
0,         40,         40,        1,   599040, 0x95549fb2
0,         41,         41,        1,   599040, 0x1f57d5c1
0,         42,         42,        1,   599040, 0xc99fa8c6
0,         43,         43,        1,   599040, 0x567f4e7e
0,         44,         44,        1,   599040, 0x23d3d54f
0,         45,         45,        1,   599040, 0xe8f74d97
0,         46,         46,        1,   599040, 0xd2b03a4d
0,         47,         47,        1,   599040, 0xe59c4faf
0,         48,         48,        1,   599040, 0x46da921d
0,         49,         49,        1,   599040, 0x7a344fa3
0,         50,         50,        1,   599040, 0xbc736fd4
0,         51,         51,        1,   599040, 0xfe5c362c
0,         52,         52,        1,   599040, 0x115ed271
0,         53,         53,        1,   599040, 0x3c4913fc
0,         54,         54,        1,   599040, 0x1e1f8114
0,         55,         55,        1,   599040, 0x08c06e58
0,         56,         56,        1,   599040, 0x599f07f6
0,         57,         57,        1,   599040, 0xc922a0c9
0,         58,         58,        1,   599040, 0xc77b5201
0,         59,         59,        1,   599040, 0x4c2cde6d
